<svg width="45" height="45" fill="none" xmlns="http://www.w3.org/2000/svg"><path d="M35.366 4.804l1.723.942.942 1.723a.734.734 0 001.289 0l.942-1.723 1.722-.942a.734.734 0 000-1.289l-1.722-.942L39.32.851a.735.735 0 00-1.289 0l-.942 1.722-1.723.942a.734.734 0 000 1.289zm2.616-1.045a.735.735 0 00.292-.292l.401-.733.401.733a.735.735 0 00.292.292l.733.4-.733.402a.734.734 0 00-.292.292l-.4.733-.402-.733a.734.734 0 00-.292-.292l-.733-.401.733-.401zM.813 18.023l1.722.942.942 1.723a.735.735 0 001.289 0l.942-1.723 1.722-.942a.735.735 0 000-1.289l-1.722-.942-.942-1.723a.735.735 0 00-1.289 0l-.942 1.723-1.722.942a.735.735 0 000 1.289zm2.616-1.046a.735.735 0 00.292-.291l.4-.734.401.734a.735.735 0 00.292.291l.734.401-.734.401a.733.733 0 00-.292.292l-.4.734-.401-.734a.733.733 0 00-.292-.292l-.734-.4.734-.402zm41.028 26.499l-4.016-8.267-.886-2.66-1.394.464.901 2.705c.01.03.023.06.037.09l3.963 8.158v.565h1.47v-.734a.734.734 0 00-.075-.321z" fill="#8A5137"/><path d="M36.439 36.728a.734.734 0 00-.358-.427l-3-1.577-3.559-4.967a1.1 1.1 0 011.02.005l2.504 1.32a.734.734 0 001.029-.91l-3.352-8.785a1.105 1.105 0 01.342-1.372l4.445 5.946.01.015a4.756 4.756 0 01.816 1.558l1.336 4.01 1.393-.464-1.333-4.002a6.216 6.216 0 00-1.051-2.003l-4.787-6.404a.734.734 0 00-.805-.262l-.132.04a2.573 2.573 0 00-1.6 3.478l2.65 6.947-.78-.412a2.567 2.567 0 00-2.976.417l-.23.22a.734.734 0 00-.09.959l4.057 5.663c.067.093.154.17.255.223l2.888 1.517 2.056 6.45v.62h1.47v-.734a.734.734 0 00-.035-.223l-2.183-6.846zm-23.427-1.007l4.057-5.663a.734.734 0 00-.09-.959l-.23-.22a2.566 2.566 0 00-2.976-.416l-.78.411 2.65-6.947a2.572 2.572 0 00-1.6-3.477l-.132-.041a.734.734 0 00-.805.262l-4.787 6.404a6.22 6.22 0 00-1.05 2.003l-2.71 8.13L.542 43.49a.734.734 0 00-.073.32v.721h1.469v-.552l3.964-8.172a.74.74 0 00.036-.089l2.726-8.184a4.757 4.757 0 01.826-1.573l4.445-5.946a1.105 1.105 0 01.342 1.372l-3.352 8.785a.734.734 0 001.03.91l2.503-1.32a1.101 1.101 0 011.02-.005l-3.559 4.967-3 1.577c-.17.09-.3.243-.358.427l-2.183 6.846a.735.735 0 00-.034.223v.734h1.468v-.62l2.057-6.45 2.888-1.517a.734.734 0 00.255-.223z" fill="#8A5137"/><path d="M26.933 37.382a.735.735 0 00.564.526l6.609 1.322.288-1.44-6.165-1.234-.985-3.579a11.8 11.8 0 00.106-.086c.336.08.68.121 1.025.12v-1.468c-1.647 0-2.938-1.391-2.938-3.167a3.216 3.216 0 01.93-2.285.735.735 0 00.074-.948 3.24 3.24 0 01-.611-1.91c0-1.266.716-2.408 1.826-2.91a.735.735 0 00.282-1.113 1.469 1.469 0 011.945-2.134.736.736 0 00.779-.002 2.9 2.9 0 011.549-.449c1.665 0 3.02 1.42 3.02 3.167a3.278 3.278 0 01-.42 1.612l1.278.723a4.761 4.761 0 00-.174-4.95 7.673 7.673 0 00-2.143-10.02l-.214-.155A19.051 19.051 0 0032.032 6c-.136-1.512-1.164-2.895-2.93-3.926C27.325 1.04 24.981.47 22.5.47s-4.826.57-6.601 1.605c-1.767 1.03-2.795 2.414-2.93 3.926-.522.307-1.031.642-1.527 1.002l-.214.156A7.613 7.613 0 009.02 9.66l1.287.709a6.154 6.154 0 011.785-2.024l.214-.156a17.333 17.333 0 0120.388 0l.214.156a6.203 6.203 0 011.944 7.7 4.385 4.385 0 00-2.047-.85c-.593-1.836-1.56-3.315-2.882-4.4-1.508-1.239-3.49-1.973-5.89-2.184l-.129 1.463c3.798.334 6.217 2.032 7.37 5.183a4.38 4.38 0 00-1.019.361 2.94 2.94 0 00-3.891 3.753 4.74 4.74 0 00-1.43 6.13 4.69 4.69 0 00-.965 2.874c0 1.603.736 2.992 1.88 3.821-1.183.856-2.347 1.319-3.349 1.319-1.002 0-2.166-.463-3.349-1.319 1.144-.83 1.88-2.218 1.88-3.821a4.689 4.689 0 00-.965-2.873 4.74 4.74 0 00-1.43-6.13 2.938 2.938 0 00-3.891-3.754 4.377 4.377 0 00-1.018-.36c.573-1.554 1.468-2.77 2.668-3.623 1.513-1.075 3.567-1.62 6.105-1.62v-1.47c-2.85 0-5.19.638-6.956 1.893-1.564 1.111-2.689 2.71-3.35 4.758a4.387 4.387 0 00-2.046.849 6.208 6.208 0 01-.379-4.363l-1.414-.397a7.677 7.677 0 00.73 5.891 4.76 4.76 0 00-.174 4.95l1.279-.723a3.277 3.277 0 01-.42-1.612c0-1.746 1.354-3.167 3.02-3.167a2.9 2.9 0 011.548.449.735.735 0 00.779.002 1.468 1.468 0 011.945 2.134.734.734 0 00.282 1.113c1.11.502 1.826 1.644 1.826 2.91a3.24 3.24 0 01-.611 1.91.734.734 0 00.074.948 3.217 3.217 0 01.93 2.285c0 1.776-1.29 3.167-2.938 3.167v1.469c.345 0 .69-.04 1.025-.121l.106.086-.985 3.58-6.165 1.232.288 1.44 6.61-1.321a.734.734 0 00.563-.526l.963-3.5c1.192.726 2.37 1.102 3.47 1.102s2.277-.376 3.47-1.102l.963 3.5zM22.5 3.406a18.695 18.695 0 00-7.71 1.649c1.038-1.783 4.15-3.117 7.71-3.117 3.56 0 6.672 1.334 7.71 3.117a18.695 18.695 0 00-7.71-1.649zm4.406 36.054v-.07h-1.469v.07a2.38 2.38 0 001.995 2.354l7.432 1.239.241-1.45-7.432-1.238a.915.915 0 01-.767-.905zm-8.812 0a.916.916 0 01-.767.905l-7.432 1.239.241 1.449 7.432-1.24a2.38 2.38 0 001.994-2.353v-.07h-1.468v.07z" fill="#8A5137"/></svg>