<svg width="30" height="42" fill="none" xmlns="http://www.w3.org/2000/svg"><path d="M22.566 37.806v-4.959c0-4.1-2.319-7.871-5.945-9.734a10.95 10.95 0 005.475-6.563.615.615 0 00-1.177-.356 9.72 9.72 0 01-5.231 6.007l-.77.354a.615.615 0 000 1.116l.77.355a9.74 9.74 0 015.649 8.821v4.812h-1.885v-1.928a.614.614 0 10-1.229 0v1.928H6.247v-4.812a6.618 6.618 0 013.838-5.994l2.15-.99 2.15.99a6.617 6.617 0 013.838 5.994v.264a.614.614 0 101.23 0v-.264a7.85 7.85 0 00-4.553-7.11l-2.408-1.109a.613.613 0 00-.514 0l-2.407 1.11a7.85 7.85 0 00-4.553 7.109v4.812H3.133v-4.812a9.74 9.74 0 015.65-8.821l.768-.355a.614.614 0 000-1.116l-.769-.354a9.658 9.658 0 01-5.376-6.54.615.615 0 00-1.194.29 10.874 10.874 0 005.637 7.162 10.976 10.976 0 00-5.945 9.734v4.926A1.741 1.741 0 00.78 39.398v.862c0 .96.78 1.74 1.74 1.74h19.35c.96 0 1.74-.78 1.74-1.74v-.86c0-.712-.43-1.324-1.043-1.593zm-.186 2.454a.51.51 0 01-.51.51H2.518a.511.511 0 01-.511-.51v-.86c0-.282.229-.511.51-.511H21.87a.51.51 0 01.51.51v.862z" fill="#8A5137"/><path d="M1.904 8.453v4.734a.614.614 0 101.23 0v-4.62h1.884v4.813a7.85 7.85 0 004.552 7.109l2.408 1.109a.613.613 0 00.514 0l2.407-1.109a7.872 7.872 0 004.139-4.605.615.615 0 00-1.164-.395 6.637 6.637 0 01-3.489 3.884l-2.15.99-2.15-.99a6.617 6.617 0 01-3.838-5.994V8.567h6.616a.615.615 0 000-1.229H2.52a.511.511 0 01-.511-.51v-.862a.51.51 0 01.51-.51h10.649a.614.614 0 100-1.23H2.519c-.96 0-1.74.78-1.74 1.74v.862a1.74 1.74 0 001.125 1.625z" fill="#8A5137"/><path d="M28.889 5.092a.614.614 0 10-1.173.368 6.048 6.048 0 01-5.765 7.85c-3.33 0-6.04-2.71-6.04-6.04 0-3.331 2.71-6.04 6.04-6.04 1.78 0 3.463.78 4.615 2.143a.615.615 0 00.938-.793A7.26 7.26 0 0021.951 0c-4.009 0-7.27 3.261-7.27 7.27 0 4.008 3.261 7.27 7.27 7.27 4.009 0 7.27-3.261 7.27-7.27 0-.742-.112-1.475-.332-2.178z" fill="#8A5137"/><path d="M21.951 3.318a.615.615 0 00-.614.615v3.219c0 .24.093.466.263.636l2.276 2.276a.612.612 0 00.87 0 .614.614 0 000-.869l-2.18-2.18V3.933a.614.614 0 00-.615-.615z" fill="#8A5137"/></svg>