<svg width="44" height="48" fill="none" xmlns="http://www.w3.org/2000/svg"><path d="M4.303 31.027l2.414 1.828.06.048 1.56 1.178 6.191 4.686a3.308 3.308 0 001.991.663h6.943a.701.701 0 000-1.403H16.52a1.925 1.925 0 01-1.923-1.923c0-1.06.863-1.922 1.923-1.922h9.664a.701.701 0 000-1.403h-3.382v-4.117a.701.701 0 10-1.403 0v4.117H16.52l-.07.002V12.2h4.95v13.473a.701.701 0 001.402 0v-13.54a2.42 2.42 0 001.853-2.348V3.078A3.082 3.082 0 0021.576 0H3.34a.701.701 0 100 1.403h18.236c.924 0 1.675.751 1.675 1.675v3.976h-9.037V5.078a.701.701 0 00-.702-.7h-2.528a.701.701 0 100 1.402h1.827v4.005a2.42 2.42 0 002.235 2.408v15.876l-.498-.377a2.347 2.347 0 00-3.693 1.327l-.728-.55a2.781 2.781 0 00-4.43 1.855l-.548-.415a2.958 2.958 0 00-4.74 2.294c-.017.82.295 1.588.878 2.165l4.127 4.078a.702.702 0 00.986-.997L2.273 33.37a1.54 1.54 0 01-.461-1.138 1.555 1.555 0 012.491-1.206zm9.91-21.242V8.457h9.038v1.328c0 .558-.454 1.012-1.013 1.012h-7.011a1.014 1.014 0 01-1.013-1.012zm-1.83 19.21a.943.943 0 011.319-.184l1.344 1.016v2.36l-2.49-1.882a.942.942 0 01-.173-1.31zm-5.028.862a1.377 1.377 0 011.927-.268l2.417 1.826.022.018 2.735 2.066a3.32 3.32 0 00-1.26 2.496l-3.99-3.015-1.61-1.22a1.376 1.376 0 01-.24-1.903zM33.709 46.76l-3.536-2.947a.7.7 0 00-.449-.163H13.9a2.96 2.96 0 01-2.093-.86L8.53 39.553a.701.701 0 10-.986.997l3.277 3.238a4.354 4.354 0 003.079 1.264h15.57l3.34 2.785a.698.698 0 00.988-.09.7.7 0 00-.09-.987z" fill="#8A5137"/><path d="M7.995 4.377H3.34a.701.701 0 100 1.403h4.655a.701.701 0 100-1.403zM20.081 19.47v-4.71a.701.701 0 00-1.402 0v4.71a.701.701 0 001.402 0zm-2.374 8.45v1.484a.701.701 0 101.402 0V27.92a.701.701 0 10-1.402 0zm8.706-9.426c.547.196 2.003.718 3.12.718.257 0 .496-.028.702-.093a2.796 2.796 0 001.816-3.508 2.796 2.796 0 00-3.507-1.816c-.273.087-1.102.35-2.761 2.718-.236.336-.3.754-.175 1.146.124.392.417.696.805.835zm2.555-3.362a1.392 1.392 0 011.656 1.964c-.17.33-.46.573-.813.686-.293.093-1.202-.002-2.807-.567.985-1.388 1.671-1.99 1.964-2.083zm.152 6.78c-.212-.013-.858-.051-2.546 1.084-.29.195-.469.507-.49.856-.021.349.119.68.384.908 1.54 1.33 2.186 1.368 2.398 1.381a2.12 2.12 0 001.712-3.52 2.104 2.104 0 00-1.458-.709zm.587 2.158a.716.716 0 01-.756.671c-.1-.01-.507-.175-1.27-.793.832-.523 1.256-.636 1.355-.636a.71.71 0 01.493.24.71.71 0 01.178.518zM7.259 17.53a2.523 2.523 0 00-.026 1.944 2.53 2.53 0 001.357 1.393c.127.054.39.168.984.168.524 0 1.303-.088 2.47-.381.376-.095.68-.354.834-.71a1.226 1.226 0 00-.06-1.094c-1.261-2.239-1.984-2.55-2.222-2.652a2.523 2.523 0 00-1.944-.025 2.524 2.524 0 00-1.393 1.357zm1.288.553a1.136 1.136 0 011.495-.597c.187.08.693.564 1.444 1.86-1.457.347-2.156.312-2.342.232a1.131 1.131 0 01-.608-.624 1.13 1.13 0 01.011-.87zm34.765 21.846l-5.77-4.353a13.95 13.95 0 00-8.35-2.797h-.02a.701.701 0 000 1.402h.02c2.691 0 5.357.893 7.506 2.515l5.77 4.353a.698.698 0 00.981-.138.701.701 0 00-.137-.982z" fill="#8A5137"/></svg>