<svg width="30" height="42" viewBox="0 0 30 42" fill="none" xmlns="http://www.w3.org/2000/svg">
<path d="M22.5657 37.8055V32.847C22.5657 28.7465 20.2473 24.9759 16.6207 23.1132C19.2515 21.7627 21.2339 19.3943 22.0955 16.5505C22.1939 16.2257 22.0104 15.8827 21.6856 15.7842C21.3608 15.6856 21.0177 15.8692 20.9192 16.1941C20.1143 18.8507 18.2076 21.04 15.6878 22.2006L14.9185 22.555C14.7006 22.6554 14.5611 22.8733 14.5611 23.1132C14.5611 23.3531 14.7006 23.571 14.9185 23.6713L15.6879 24.0258C19.1194 25.6064 21.3367 29.069 21.3367 32.847V37.659H19.4521V35.7305C19.4521 35.391 19.177 35.1159 18.8376 35.1159C18.4982 35.1159 18.223 35.391 18.223 35.7305V37.6589H6.24674V32.8469C6.24674 30.2802 7.75324 27.9276 10.0847 26.8535L12.2349 25.8631L14.3853 26.8537C16.7167 27.9276 18.2231 30.28 18.2231 32.8469V33.1115C18.2231 33.451 18.4983 33.726 18.8377 33.726C19.177 33.726 19.4522 33.451 19.4522 33.1115V32.8469C19.4522 29.802 17.6651 27.0113 14.8995 25.7374L12.4921 24.6284C12.3289 24.5531 12.141 24.5531 11.9779 24.6284L9.57053 25.7373C6.8049 27.0113 5.01784 29.802 5.01784 32.8469V37.6589H3.13328V32.8469C3.13328 29.0689 5.35059 25.6063 8.78213 24.0256L9.55144 23.6712C9.76931 23.5709 9.90885 23.353 9.90885 23.1131C9.90885 22.8732 9.76931 22.6553 9.55144 22.5549L8.78205 22.2005C6.0682 20.9504 4.10883 18.5669 3.40638 15.6612C3.32657 15.3313 2.99423 15.1288 2.66468 15.2083C2.3348 15.2881 2.132 15.6201 2.21173 15.9501C2.96646 19.0721 5.00924 21.6589 7.84895 23.1132C4.22272 24.976 1.90414 28.7466 1.90414 32.8469V37.773C1.24773 38.0221 0.779053 38.6558 0.779053 39.3985V40.2603C0.779053 41.2195 1.55942 41.9999 2.51867 41.9999H21.8693C22.8286 41.9999 23.609 41.2195 23.609 40.2603V39.3985C23.6089 38.687 23.179 38.0747 22.5657 37.8055ZM22.3798 40.2603C22.3798 40.5418 22.1508 40.7709 21.8693 40.7709H2.51858C2.23705 40.7709 2.00803 40.5418 2.00803 40.2603V39.3985C2.00803 39.1169 2.23705 38.8879 2.51858 38.8879H21.8693C22.1508 38.8879 22.3798 39.117 22.3798 39.3985V40.2603Z" fill="#8A5137"/>
<path d="M1.90401 8.45331V13.187C1.90401 13.5265 2.17916 13.8015 2.51854 13.8015C2.85793 13.8015 3.13307 13.5265 3.13307 13.187V8.56753H5.01763V13.3795C5.01763 16.4244 6.80469 19.2151 9.57032 20.489L11.9777 21.598C12.0593 21.6357 12.1471 21.6544 12.2348 21.6544C12.3226 21.6544 12.4104 21.6357 12.492 21.598L14.8992 20.4891C16.8396 19.5953 18.348 17.9167 19.0379 15.8836C19.1469 15.5622 18.9748 15.2132 18.6533 15.1042C18.3321 14.9954 17.983 15.1673 17.8739 15.4886C17.292 17.2037 16.0204 18.6195 14.385 19.3728L12.2348 20.3632L10.0844 19.3726C7.75295 18.2988 6.24653 15.9463 6.24653 13.3794V8.56745H12.8631C13.2024 8.56745 13.4776 8.29238 13.4776 7.95291C13.4776 7.61345 13.2024 7.33838 12.8631 7.33838H2.51854C2.23701 7.33838 2.00799 7.10937 2.00799 6.82783V5.96609C2.00799 5.68456 2.23701 5.45562 2.51854 5.45562H13.1669C13.5063 5.45562 13.7814 5.18056 13.7814 4.84109C13.7814 4.50163 13.5063 4.22656 13.1669 4.22656H2.51854C1.5593 4.22656 0.778931 5.00693 0.778931 5.96609V6.82791C0.778931 7.57051 1.24761 8.20422 1.90401 8.45331Z" fill="#8A5137"/>
<path d="M28.8887 5.09233C28.7871 4.76843 28.4424 4.58809 28.1184 4.68986C27.7946 4.79138 27.6144 5.13625 27.7159 5.46007C27.899 6.04404 27.9919 6.65291 27.9919 7.26982C27.9919 10.6007 25.282 13.3107 21.951 13.3107C18.6201 13.3107 15.9102 10.6008 15.9102 7.26982C15.9102 3.93882 18.6203 1.22906 21.9511 1.22906C23.7317 1.22906 25.4136 2.01066 26.5657 3.37345C26.7847 3.63262 27.1725 3.66514 27.4317 3.44604C27.6908 3.22694 27.7234 2.83922 27.5043 2.58005C26.1182 0.940396 24.0942 0 21.9511 0C17.9425 0 14.6812 3.26128 14.6812 7.2699C14.6812 11.2785 17.9425 14.5398 21.9511 14.5398C25.9597 14.5398 29.221 11.2785 29.221 7.2699C29.221 6.52804 29.1093 5.79536 28.8887 5.09233Z" fill="#8A5137"/>
<path d="M21.9512 3.31824C21.6118 3.31824 21.3366 3.5933 21.3366 3.93277V7.15193C21.3366 7.39209 21.4301 7.61782 21.6001 7.78793L23.8764 10.0641C23.9963 10.1841 24.1537 10.2441 24.3109 10.2441C24.4681 10.2441 24.6255 10.1841 24.7454 10.0641C24.9854 9.82407 24.9854 9.43503 24.7454 9.19504L22.5656 7.01534V3.93277C22.5657 3.5933 22.2906 3.31824 21.9512 3.31824Z" fill="#8A5137"/>
</svg>
