<svg width="44" height="48" viewBox="0 0 44 48" fill="none" xmlns="http://www.w3.org/2000/svg">
<path d="M4.30285 31.0268L6.71743 32.8547C6.73753 32.8708 6.75726 32.8872 6.77792 32.9028L8.33743 34.0812C8.33743 34.0812 14.5243 38.7637 14.5284 38.7667C15.0838 39.183 15.7731 39.4299 16.5191 39.4299H23.4624C23.8496 39.4299 24.1636 39.116 24.1636 38.7286C24.1636 38.3412 23.8496 38.0274 23.4624 38.0274H16.5191C15.4587 38.0274 14.596 37.1647 14.596 36.1044C14.596 35.0441 15.4587 34.1815 16.5191 34.1815H26.183C26.5702 34.1815 26.8842 33.8676 26.8842 33.4802C26.8842 33.0928 26.5702 32.779 26.183 32.779H22.8007V28.6616C22.8007 28.2743 22.4868 27.9604 22.0995 27.9604C21.7122 27.9604 21.3982 28.2743 21.3982 28.6616V32.779H16.5191C16.4955 32.779 16.4723 32.7803 16.4489 32.7807V12.2H21.3983V25.6731C21.3983 26.0604 21.7123 26.3743 22.0996 26.3743C22.4869 26.3743 22.8008 26.0604 22.8008 25.6731V12.1334C23.8624 11.8792 24.654 10.923 24.654 9.7847V3.07824C24.6539 1.38092 23.273 0 21.5757 0H3.33979C2.95251 0 2.63853 0.313883 2.63853 0.701258C2.63853 1.08863 2.95251 1.40252 3.33979 1.40252H21.5757C22.4997 1.40252 23.2514 2.15427 23.2514 3.07824V7.0541H14.2136V5.07833C14.2136 4.69095 13.8996 4.37707 13.5123 4.37707H10.9838C10.5965 4.37707 10.2825 4.69095 10.2825 5.07833C10.2825 5.4657 10.5965 5.77958 10.9838 5.77958H12.8111V9.78461C12.8111 11.0558 13.7985 12.1001 15.0463 12.1925V28.0692L14.5475 27.6922C13.5162 26.9132 12.0432 27.1181 11.2641 28.1493C11.0624 28.4162 10.9272 28.7129 10.8547 29.0193L10.1274 28.4698C8.90516 27.5464 7.15959 27.7895 6.23618 29.0115C5.94146 29.4015 5.75923 29.8519 5.69789 30.3239L5.14932 29.9086C4.01637 29.0507 2.43049 29.1218 1.37833 30.0766C0.77113 30.6279 0.427139 31.3829 0.409748 32.2027C0.392357 33.0225 0.703996 33.7915 1.28735 34.3679L5.4143 38.4462C5.68985 38.7183 6.13379 38.7155 6.40597 38.4403C6.67825 38.1648 6.67554 37.7209 6.40008 37.4486L2.27313 33.3704C1.96664 33.0675 1.80282 32.6633 1.81189 32.2324C1.82105 31.8017 2.00179 31.4048 2.32091 31.1152C2.87406 30.6131 3.70753 30.5762 4.30285 31.0268ZM14.2136 9.78461V8.45661H23.2514V9.78461C23.2514 10.3432 22.797 10.7975 22.2385 10.7975H15.2265C14.668 10.7975 14.2136 10.3432 14.2136 9.78461ZM12.3831 28.995C12.6962 28.5808 13.2878 28.4986 13.702 28.8113L15.0463 29.8272V32.1868L12.5555 30.3047C12.1514 29.9893 12.073 29.4053 12.3831 28.995ZM7.35529 29.8571C7.81242 29.2519 8.67693 29.1316 9.28197 29.5888L11.6994 31.4154C11.7067 31.4211 11.7137 31.4271 11.7211 31.4328L14.4559 33.4992C13.7144 34.0876 13.2292 34.9848 13.1963 35.9948L9.20605 32.9797L7.59521 31.7603C7.0156 31.2975 6.90546 30.4523 7.35529 29.8571Z" fill="#8A5137"/>
<path d="M33.7086 46.7604L30.1734 43.8126C30.0473 43.7074 29.8884 43.6499 29.7243 43.6499H13.8986C13.1098 43.6499 12.3665 43.3445 11.8055 42.7902L8.529 39.5526C8.25346 39.2803 7.80951 39.283 7.53733 39.5585C7.26515 39.8339 7.26777 40.2779 7.54322 40.5501L10.8197 43.7878C11.6448 44.6033 12.7383 45.0523 13.8986 45.0523H29.4702L32.8103 47.8374C32.9414 47.9468 33.1006 48.0001 33.259 48.0001C33.4598 48.0001 33.6593 47.9143 33.7979 47.7479C34.0461 47.4505 34.006 47.0084 33.7086 46.7604Z" fill="#8A5137"/>
<path d="M7.9952 4.37708H3.33978C2.9525 4.37708 2.63852 4.69096 2.63852 5.07833C2.63852 5.46571 2.9525 5.77959 3.33978 5.77959H7.99529C8.38257 5.77959 8.69655 5.46571 8.69655 5.07833C8.69655 4.69096 8.38257 4.37708 7.9952 4.37708Z" fill="#8A5137"/>
<path d="M20.0812 19.4694V14.7592C20.0812 14.3719 19.7672 14.058 19.3799 14.058C18.9926 14.058 18.6786 14.3719 18.6786 14.7592V19.4694C18.6786 19.8567 18.9926 20.1706 19.3799 20.1706C19.7672 20.1706 20.0812 19.8566 20.0812 19.4694Z" fill="#8A5137"/>
<path d="M17.7067 27.9198V29.4036C17.7067 29.791 18.0207 30.1049 18.408 30.1049C18.7953 30.1049 19.1092 29.791 19.1092 29.4036V27.9198C19.1092 27.5324 18.7953 27.2185 18.408 27.2185C18.0207 27.2185 17.7067 27.5324 17.7067 27.9198Z" fill="#8A5137"/>
<path d="M26.4127 18.4937C26.9599 18.6898 28.4158 19.2117 29.5334 19.2117C29.7904 19.2117 30.0295 19.1841 30.2355 19.1186C31.7032 18.6522 32.5177 17.0787 32.0512 15.6109C31.5847 14.1434 30.0112 13.3287 28.5436 13.7953C28.2709 13.8819 27.4415 14.1456 25.783 16.5126C25.5471 16.8495 25.483 17.2672 25.6076 17.659C25.732 18.0506 26.0254 18.3548 26.4127 18.4937ZM28.9685 15.1319C29.6991 14.8998 30.4824 15.3053 30.7147 16.0358C30.8272 16.3897 30.7951 16.7663 30.6244 17.0961C30.4536 17.4259 30.1646 17.6695 29.8107 17.782C29.5177 17.8748 28.6089 17.78 27.0036 17.2152C27.9886 15.8273 28.6755 15.225 28.9685 15.1319Z" fill="#8A5137"/>
<path d="M29.1204 21.9123C28.9078 21.8989 28.2619 21.8607 26.5737 22.9956C26.2835 23.1907 26.105 23.5027 26.084 23.8515C26.0629 24.2005 26.2028 24.5317 26.4676 24.7603C28.0078 26.0893 28.6536 26.1282 28.8659 26.141H28.866C28.909 26.1436 28.9518 26.1448 28.9944 26.1448C30.1047 26.1448 31.0399 25.2766 31.1074 24.1538C31.1414 23.5891 30.9534 23.0449 30.5781 22.6214C30.2028 22.1981 29.6851 21.9462 29.1204 21.9123ZM29.7075 24.0696C29.6838 24.4633 29.3437 24.7653 28.9508 24.741C28.8508 24.7316 28.4441 24.5661 27.6815 23.9477C28.5133 23.4249 28.9374 23.3122 29.0362 23.3123C29.227 23.3238 29.4018 23.4089 29.5286 23.552C29.6554 23.695 29.7189 23.8787 29.7075 24.0696Z" fill="#8A5137"/>
<path d="M7.2588 17.5296C6.99082 18.1531 6.98184 18.8437 7.23336 19.474C7.48479 20.1044 7.96669 20.599 8.59025 20.8669C8.71667 20.9212 8.98025 21.0346 9.57444 21.0346C10.0975 21.0346 10.8767 20.9468 12.0439 20.6535C12.4204 20.5589 12.7243 20.3003 12.8776 19.9437C13.0307 19.5872 13.0093 19.1887 12.8187 18.8504C11.5569 16.611 10.8338 16.3003 10.5962 16.1982C9.97276 15.9303 9.28207 15.9212 8.65187 16.1728C8.02139 16.4242 7.52668 16.9061 7.2588 17.5296ZM8.54743 18.0833C8.66739 17.8039 8.88899 17.588 9.17145 17.4754C9.30797 17.4209 9.45074 17.3937 9.59343 17.3937C9.74593 17.3937 9.89824 17.4248 10.0425 17.4868C10.2287 17.5667 10.735 18.0497 11.4865 19.3461C10.0288 19.6933 9.33013 19.6583 9.14397 19.5784C8.86468 19.4583 8.64878 19.2367 8.53611 18.9543C8.42335 18.672 8.42737 18.3627 8.54743 18.0833Z" fill="#8A5137"/>
<path d="M43.312 39.929L37.5426 35.5759C35.1521 33.7723 32.1861 32.7789 29.1914 32.7789H29.1715C28.7843 32.7789 28.4703 33.0928 28.4703 33.4802C28.4703 33.8676 28.7843 34.1814 29.1715 34.1814H29.1914C31.8833 34.1814 34.5492 35.0743 36.6979 36.6956L42.4673 41.0486C42.5938 41.1441 42.742 41.1901 42.8891 41.1901C43.1016 41.1901 43.3116 41.094 43.4494 40.9113C43.6827 40.602 43.6212 40.1622 43.312 39.929Z" fill="#8A5137"/>
</svg>
