<svg width="45" height="45" viewBox="0 0 45 45" fill="none" xmlns="http://www.w3.org/2000/svg">
<path d="M35.3664 4.80401L37.0889 5.74609L38.031 7.46871C38.0942 7.58434 38.1874 7.68081 38.3008 7.74802C38.4142 7.81523 38.5435 7.85069 38.6753 7.85069C38.8071 7.85069 38.9365 7.81523 39.0498 7.74802C39.1632 7.68081 39.2564 7.58434 39.3197 7.46871L40.2618 5.74609L41.9843 4.80401C42.0999 4.74078 42.1964 4.6476 42.2636 4.53424C42.3308 4.42088 42.3663 4.29153 42.3663 4.15974C42.3663 4.02795 42.3309 3.89859 42.2637 3.78523C42.1964 3.67186 42.1 3.57868 41.9843 3.51544L40.2618 2.57327L39.3197 0.850727C39.2564 0.735103 39.1632 0.638628 39.0498 0.571421C38.9365 0.504213 38.8071 0.46875 38.6753 0.46875C38.5435 0.46875 38.4142 0.504213 38.3008 0.571421C38.1874 0.638628 38.0942 0.735103 38.031 0.850727L37.0889 2.57327L35.3663 3.51549C35.2507 3.57872 35.1542 3.67191 35.087 3.78527C35.0198 3.89864 34.9843 4.028 34.9843 4.15978C34.9844 4.29157 35.0198 4.42093 35.087 4.53429C35.1543 4.64764 35.2507 4.74082 35.3664 4.80405V4.80401ZM37.9824 3.75865C38.1056 3.69124 38.2069 3.58994 38.2743 3.46674L38.6753 2.73353L39.0763 3.46674C39.1437 3.58993 39.245 3.69124 39.3682 3.75865L40.1015 4.15972L39.3683 4.56071C39.245 4.62808 39.1437 4.72939 39.0763 4.85262L38.6753 5.58583L38.2743 4.85259C38.207 4.72936 38.1056 4.62805 37.9824 4.56068L37.2492 4.15969L37.9824 3.75865Z" fill="#8A5137"/>
<path d="M0.812562 18.0228L2.53507 18.9648L3.47715 20.6875C3.5404 20.8031 3.63359 20.8996 3.74696 20.9668C3.86032 21.034 3.98969 21.0694 4.12148 21.0694C4.25327 21.0694 4.38263 21.034 4.496 20.9668C4.60936 20.8996 4.70256 20.8031 4.7658 20.6875L5.70789 18.9648L7.43043 18.0228C7.54606 17.9595 7.64254 17.8663 7.70976 17.753C7.77698 17.6396 7.81245 17.5103 7.81245 17.3785C7.81246 17.2467 7.777 17.1173 7.70979 17.004C7.64258 16.8906 7.5461 16.7974 7.43047 16.7342L5.70792 15.792L4.76583 14.0695C4.70259 13.9539 4.60939 13.8574 4.49603 13.7902C4.38266 13.723 4.2533 13.6875 4.1215 13.6875C3.98971 13.6875 3.86035 13.723 3.74698 13.7902C3.63362 13.8574 3.54042 13.9539 3.47718 14.0695L2.53507 15.792L0.812516 16.7342C0.696887 16.7975 0.600405 16.8907 0.533193 17.004C0.46598 17.1174 0.430513 17.2467 0.430513 17.3785C0.430513 17.5103 0.46598 17.6397 0.533193 17.753C0.600405 17.8664 0.696887 17.9596 0.812516 18.0228L0.812562 18.0228ZM3.4286 16.9774C3.5518 16.91 3.6531 16.8087 3.72051 16.6855L4.1215 15.9523L4.52249 16.6855C4.5899 16.8087 4.6912 16.91 4.8144 16.9774L5.54761 17.3785L4.81445 17.7795C4.6912 17.8468 4.58987 17.9481 4.52248 18.0714L4.12149 18.8046L3.7205 18.0714C3.65311 17.9481 3.55178 17.8468 3.42853 17.7795L2.69536 17.3785L3.4286 16.9774Z" fill="#8A5137"/>
<path d="M44.4573 43.476L40.4406 35.2086L39.5546 32.5492L38.1611 33.0134L39.0623 35.7184C39.0724 35.7488 39.0845 35.7785 39.0985 35.8073L43.0624 43.9659V44.5313H44.5312V43.7969C44.5312 43.6857 44.5059 43.576 44.4573 43.476Z" fill="#8A5137"/>
<path d="M36.4387 36.7279C36.3801 36.5441 36.2515 36.3908 36.0807 36.301L33.0808 34.7245L29.5223 29.7568C29.68 29.6752 29.8551 29.6331 30.0327 29.6339C30.2103 29.6347 30.385 29.6785 30.542 29.7615L33.0458 31.0827C33.1778 31.1524 33.3279 31.1801 33.4761 31.1623C33.6244 31.1445 33.7636 31.0819 33.8754 30.983C33.9871 30.884 34.0661 30.7533 34.1017 30.6083C34.1373 30.4633 34.1278 30.3109 34.0746 30.1715L30.7232 21.3868C30.7186 21.3748 30.7138 21.363 30.7085 21.3512C30.607 21.1211 30.587 20.8633 30.6518 20.6203C30.7167 20.3773 30.8624 20.1637 31.0651 20.0147L35.5095 25.9614C35.5133 25.9663 35.517 25.9713 35.5208 25.9761C35.8836 26.4362 36.1583 26.9593 36.331 27.5192C36.3325 27.5243 36.3341 27.5293 36.3358 27.5343L37.6719 31.5445L39.0654 31.0804L37.7318 27.0775C37.5068 26.3513 37.1505 25.6726 36.6806 25.075L31.8941 18.6706C31.8033 18.5492 31.6773 18.4588 31.5331 18.4119C31.389 18.365 31.2339 18.3638 31.0891 18.4086L30.9566 18.4494C30.6116 18.5561 30.2929 18.7343 30.0213 18.9723C29.7498 19.2104 29.5315 19.503 29.3806 19.8311C29.2297 20.1592 29.1496 20.5154 29.1456 20.8765C29.1415 21.2376 29.2136 21.5955 29.3572 21.9269L32.0077 28.8743L31.2274 28.4625C30.7504 28.2102 30.2061 28.1147 29.6717 28.1894C29.1373 28.2642 28.64 28.5054 28.2506 28.8789L28.0202 29.0995C27.8925 29.2217 27.8132 29.3859 27.7969 29.5619C27.7805 29.7378 27.8281 29.9138 27.9311 30.0575L31.9881 35.7212C32.0547 35.8143 32.1421 35.8905 32.2434 35.9437L35.1308 37.4611L37.1875 43.9111V44.5313H38.6562V43.7969C38.6562 43.7212 38.6445 43.6459 38.6215 43.5738L36.4387 36.7279Z" fill="#8A5137"/>
<path d="M13.0119 35.7213L17.0689 30.0576C17.1718 29.9139 17.2195 29.7379 17.2031 29.5619C17.1868 29.3859 17.1074 29.2217 16.9798 29.0995L16.7494 28.8789C16.3599 28.5054 15.8627 28.2642 15.3283 28.1895C14.7939 28.1147 14.2496 28.2103 13.7726 28.4626L12.9923 28.8743L15.6428 21.9269C15.7863 21.5955 15.8584 21.2376 15.8544 20.8765C15.8504 20.5154 15.7703 20.1592 15.6194 19.8311C15.4685 19.503 15.2501 19.2104 14.9785 18.9723C14.7069 18.7343 14.3883 18.5561 14.0432 18.4495L13.9109 18.4086C13.766 18.3638 13.6109 18.365 13.4668 18.4119C13.3227 18.4588 13.1966 18.5492 13.1059 18.6706L8.31926 25.0751C7.84946 25.6728 7.49322 26.3515 7.26819 27.0777L4.55922 35.2089L0.54238 43.4897C0.493919 43.5895 0.468744 43.6991 0.46875 43.8101V44.5313H1.9375V43.9789L5.90157 35.8069C5.91547 35.7782 5.9275 35.7487 5.93757 35.7185L8.66413 27.5345C8.66583 27.5295 8.66745 27.5244 8.66902 27.5193C8.8417 26.9595 9.11635 26.4363 9.47915 25.9762C9.483 25.9714 9.48672 25.9665 9.49044 25.9615L13.9349 20.0148C14.1375 20.1638 14.2833 20.3774 14.3481 20.6204C14.4129 20.8634 14.393 21.1213 14.2914 21.3514C14.2862 21.3631 14.2813 21.375 14.2768 21.387L10.9253 30.1715C10.8721 30.311 10.8627 30.4634 10.8983 30.6083C10.9339 30.7533 11.0128 30.884 11.1246 30.983C11.2363 31.082 11.3756 31.1445 11.5238 31.1624C11.672 31.1802 11.8222 31.1524 11.9542 31.0827L14.458 29.7615C14.615 29.6785 14.7897 29.6348 14.9673 29.6339C15.1448 29.6331 15.3199 29.6753 15.4777 29.7568L11.9192 34.7245L8.91928 36.301C8.74851 36.3908 8.61992 36.5442 8.56127 36.728L6.37844 43.5738C6.35545 43.646 6.34375 43.7212 6.34375 43.797V44.5313H7.8125V43.9112L9.86914 37.4611L12.7565 35.9437C12.8578 35.8905 12.9453 35.8143 13.0119 35.7213Z" fill="#8A5137"/>
<path d="M26.9325 37.3824C26.9686 37.5136 27.0405 37.6323 27.1401 37.7251C27.2397 37.8178 27.3631 37.8811 27.4966 37.9078L34.106 39.2297L34.394 37.7894L28.2287 36.5563L27.2444 32.9772C27.2797 32.9486 27.3149 32.9198 27.3501 32.8906C27.6858 32.9715 28.0298 33.0122 28.375 33.0118V31.5431C26.7278 31.5431 25.4375 30.1519 25.4375 28.3758C25.4345 27.9526 25.5151 27.5329 25.6746 27.1409C25.8342 26.7488 26.0695 26.3922 26.3672 26.0913C26.4899 25.9677 26.5648 25.8046 26.5784 25.631C26.5919 25.4574 26.5434 25.2846 26.4413 25.1435C26.0402 24.5872 25.826 23.9181 25.8295 23.2323C25.8295 21.9667 26.5463 20.8249 27.6556 20.3233C27.7561 20.2778 27.8451 20.2103 27.9159 20.1258C27.9868 20.0413 28.0377 19.9418 28.0648 19.8349C28.092 19.728 28.0947 19.6164 28.0728 19.5083C28.0509 19.4002 28.0049 19.2984 27.9382 19.2105C27.7443 18.9559 27.6397 18.6444 27.6406 18.3243C27.6406 18.0626 27.7105 17.8056 27.8431 17.58C27.9757 17.3544 28.1662 17.1683 28.3949 17.041C28.6235 16.9137 28.8821 16.8498 29.1437 16.856C29.4053 16.8621 29.6606 16.9381 29.883 17.076C30 17.1487 30.1351 17.187 30.2728 17.1867C30.4105 17.1863 30.5454 17.1473 30.662 17.074C31.1256 16.7812 31.6625 16.6255 32.2109 16.625C33.8758 16.625 35.2304 18.0458 35.2304 19.7923C35.2314 20.3567 35.0867 20.9119 34.8102 21.404L36.0885 22.1273C36.5165 21.3657 36.7268 20.501 36.6962 19.6279C36.6656 18.7548 36.3954 17.9069 35.9151 17.1772C36.8553 15.5365 37.1565 13.6065 36.761 11.7574C36.3656 9.90822 35.3012 8.27025 33.7721 7.15773L33.5583 7.0022C33.0627 6.64178 32.5537 6.30757 32.0315 5.99956C31.8959 4.48796 30.8675 3.10468 29.1014 2.07448C27.3264 1.03898 24.9819 0.46875 22.5 0.46875C20.0181 0.46875 17.6736 1.03898 15.8986 2.07448C14.1324 3.10468 13.1041 4.48793 12.9685 5.99953C12.4467 6.3074 11.9378 6.64162 11.4417 7.0022L11.2279 7.15773C10.3159 7.81869 9.56183 8.67381 9.02022 9.66144L10.3069 10.3698C10.7448 9.5713 11.3544 8.87991 12.0919 8.34553L12.3056 8.19C15.2681 6.03552 18.837 4.875 22.5 4.875C26.163 4.875 29.7319 6.03552 32.6944 8.19L32.9082 8.34553C34.0815 9.19923 34.9184 10.4371 35.2734 11.844C35.6285 13.2508 35.4792 14.7376 34.8517 16.0458C34.2534 15.5923 33.5488 15.3 32.8053 15.1969C32.2124 13.3599 31.2442 11.881 29.9226 10.7957C28.4148 9.5574 26.4332 8.82267 24.033 8.61174L23.9045 10.0749C27.7017 10.4085 30.1208 12.1069 31.274 15.2582C30.9208 15.3361 30.5786 15.4574 30.2553 15.6194C29.7248 15.3954 29.1403 15.3321 28.5742 15.4373C28.0081 15.5425 27.4854 15.8117 27.0709 16.2114C26.6565 16.6111 26.3685 17.1237 26.2428 17.6856C26.1171 18.2474 26.1591 18.8339 26.3637 19.3721C25.4165 20.042 24.7479 21.036 24.4845 22.1659C24.2211 23.2957 24.3812 24.483 24.9345 25.5027C24.3034 26.327 23.9637 27.3376 23.9687 28.3758C23.9687 29.979 24.7048 31.3679 25.8486 32.1971C24.666 33.0533 23.502 33.5156 22.5 33.5156C21.498 33.5156 20.334 33.0533 19.1514 32.1972C20.2952 31.3679 21.0312 29.979 21.0312 28.3758C21.0363 27.3376 20.6966 26.3271 20.0655 25.5027C20.6187 24.483 20.7789 23.2958 20.5155 22.1659C20.2521 21.0361 19.5835 20.0421 18.6363 19.3722C18.8415 18.834 18.884 18.2473 18.7584 17.6851C18.6329 17.1229 18.345 16.61 17.9303 16.2102C17.5157 15.8103 16.9927 15.5411 16.4264 15.4361C15.86 15.331 15.2752 15.3948 14.7448 15.6194C14.4218 15.4575 14.08 15.3363 13.7272 15.2584C14.2998 13.7054 15.1947 12.4893 16.3948 11.6362C17.9076 10.5609 19.9616 10.0156 22.5 10.0156V8.54688C19.6506 8.54688 17.3102 9.18353 15.5438 10.4391C13.9804 11.5505 12.8553 13.1495 12.1946 15.1968C11.4511 15.3001 10.7465 15.5924 10.1483 16.0458C9.49619 14.6859 9.36137 13.1352 9.76906 11.6831L8.35507 11.2856C8.07951 12.2669 8.00212 13.2933 8.12741 14.3048C8.25271 15.3163 8.57819 16.2928 9.08486 17.1772C8.60459 17.9069 8.33437 18.7548 8.30378 19.6279C8.2732 20.501 8.48342 21.3656 8.91144 22.1272L10.1898 21.404C9.91327 20.9119 9.76854 20.3567 9.76962 19.7922C9.76961 18.0458 11.1242 16.625 12.7891 16.625C13.3374 16.6255 13.8744 16.7812 14.338 17.074C14.4546 17.1474 14.5895 17.1864 14.7272 17.1868C14.865 17.1871 15 17.1487 15.117 17.076C15.4084 16.8953 15.7538 16.8223 16.0935 16.8696C16.4331 16.9169 16.7454 17.0816 16.9763 17.335C17.2073 17.5885 17.3422 17.9147 17.3579 18.2573C17.3735 18.5998 17.2687 18.937 17.0618 19.2104C16.9951 19.2983 16.9492 19.4 16.9272 19.5082C16.9053 19.6163 16.908 19.7279 16.9352 19.8348C16.9623 19.9417 17.0132 20.0412 17.084 20.1257C17.1549 20.2103 17.2438 20.2778 17.3444 20.3232C18.4537 20.8249 19.1705 21.9668 19.1705 23.2323C19.174 23.918 18.9598 24.5872 18.5587 25.1434C18.4566 25.2846 18.4081 25.4573 18.4217 25.631C18.4352 25.8046 18.5101 25.9677 18.6328 26.0912C18.9305 26.3921 19.1658 26.7488 19.3254 27.1409C19.4849 27.5329 19.5655 27.9526 19.5625 28.3758C19.5625 30.1519 18.2722 31.5431 16.625 31.5431V33.0118C16.9702 33.0122 17.3142 32.9715 17.6497 32.8907C17.685 32.9199 17.7203 32.9488 17.7555 32.9774L16.7713 36.5564L10.606 37.7895L10.894 39.2298L17.5034 37.9079C17.6369 37.8812 17.7603 37.8179 17.8599 37.7251C17.9595 37.6324 18.0314 37.5137 18.0675 37.3825L19.0301 33.882C20.2225 34.6077 21.3992 34.9844 22.5 34.9844C23.6008 34.9844 24.7775 34.6077 25.9699 33.882L26.9325 37.3824ZM22.5 3.40625C19.8418 3.40138 17.2132 3.96344 14.7894 5.05492C15.8275 3.27194 18.9391 1.9375 22.5 1.9375C26.0609 1.9375 29.1725 3.27194 30.2106 5.05492C27.7868 3.96344 25.1582 3.40138 22.5 3.40625Z" fill="#8A5137"/>
<path d="M26.9062 39.4597V39.3906H25.4374V39.4597C25.4359 40.025 25.6358 40.5725 26.0013 41.0039C26.3667 41.4353 26.8738 41.7225 27.4318 41.8139L34.8636 43.0526L35.1051 41.6037L27.6732 40.3651C27.4587 40.3299 27.2636 40.2195 27.1231 40.0536C26.9825 39.8876 26.9056 39.6771 26.9062 39.4597Z" fill="#8A5137"/>
<path d="M18.0938 39.4597C18.0943 39.6771 18.0175 39.8876 17.8769 40.0536C17.7363 40.2195 17.5413 40.3299 17.3267 40.3651L9.89488 41.6037L10.1364 43.0526L17.5681 41.8139C18.1261 41.7225 18.6332 41.4353 18.9987 41.0039C19.3641 40.5725 19.564 40.0251 19.5625 39.4597V39.3906H18.0938V39.4597Z" fill="#8A5137"/>
</svg>
